<svg
  width="24"
  height="24"
  viewBox="0 0 24 24"
  fill="none"
  xmlns="http://www.w3.org/2000/svg"
>
  <path
    fillRule="evenodd"
    clipRule="evenodd"
    d="M12 3.5C7.02944 3.5 3 7.14993 3 11.75C3 13.7328 3.75374 15.5501 5.00641 16.9797C5.16086 17.1559 5.24462 17.3891 5.21938 17.6229L4.97246 19.9051C4.90258 20.5522 5.53127 21.0369 6.13733 20.8074L8.90268 19.7579C9.13704 19.6688 9.39619 19.6752 9.62239 19.7737C10.3617 20.0955 11.1631 20.2846 12 20.2846C16.9706 20.2846 21 16.6346 21 12.0346C21 7.43462 16.9706 3.5 12 3.5ZM4.5 11.75C4.5 8.05435 7.86745 5 12 5C16.1326 5 19.5 8.14847 19.5 12.0346C19.5 15.9207 16.1326 18.7846 12 18.7846C11.324 18.7846 10.673 18.6259 10.0806 18.3585C9.55571 18.1216 8.95875 18.0985 8.40287 18.3096L6.55932 19.0101L6.73982 17.7807C6.82554 17.1961 6.63723 16.6222 6.24902 16.1919C5.19217 15.0247 4.5 13.4645 4.5 11.75Z"
    fill="currentColor"
  />
  <path
    d="M7.5 11C7.5 10.5858 7.83579 10.25 8.25 10.25H15.75C16.1642 10.25 16.5 10.5858 16.5 11C16.5 11.4142 16.1642 11.75 15.75 11.75H8.25C7.83579 11.75 7.5 11.4142 7.5 11Z"
    fill="currentColor"
  />
  <path
    d="M8.25 13.25C7.83579 13.25 7.5 13.5858 7.5 14C7.5 14.4142 7.83579 14.75 8.25 14.75H12.75C13.1642 14.75 13.5 14.4142 13.5 14C13.5 13.5858 13.1642 13.25 12.75 13.25H8.25Z"
    fill="currentColor"
  />
</svg>
